# File created by Blade
# Date/Time:  Tue Jan 27 19:00:36 2015
# Frame Rate: 120.000 fps
#------------------------------------------------------
:FULLY-SPECIFIED
:DEGREES
2132
root -2.046621 31.998895 -5.661559 3.027304 1.250443 -10.425241
Spine 1.037401 -11.936294 3.785109
Head 22.944276 -18.861710 7.314331
LeftShoulder -14.856434 16.156903 15.027019
LeftArm 7.246055 -35.524369 -77.098695
LeftForeArm 2.272373 -0.000000 99.232478
LeftHand -14.141729 -0.000000 30.631479
LeftHandThumb1 -26.253704 0.000000 33.147579
RightShoulder -14.531765 -5.181091 -7.538322
RightArm 4.427112 -27.836845 82.100193
RightForeArm -20.877849 -0.000000 18.621971
RightHand -14.478836 0.000000 10.269658
RightHandThumb1 -24.326973 -0.000000 -32.862282
LeftUpLeg -9.556457 3.632459 0.872014
LeftLeg 20.884836 -0.000000 -0.000000
LeftFoot -28.338338 23.179544 -18.070356
LeftToeBase 10.232673 -0.000000 -0.000000
RightUpLeg -37.608670 6.457733 -9.192686
RightLeg 93.765519 -0.000000 -0.000000
RightFoot -23.875971 -12.551758 26.547435
RightToeBase 6.384216 -0.000000 -0.000000
2133
root -2.038638 31.990489 -5.660899 2.979445 0.936944 -10.366799
Spine 1.092962 -11.768205 3.688107
Head 22.903297 -18.781590 7.367293
LeftShoulder -14.908197 16.202039 14.987226
LeftArm 7.163579 -35.617438 -77.032234
LeftForeArm 2.210532 -0.000000 99.308972
LeftHand -14.129954 0.000000 30.637093
LeftHandThumb1 -26.253704 0.000000 33.147579
RightShoulder -14.479846 -5.104410 -7.550570
RightArm 4.405148 -27.885165 82.140515
RightForeArm -20.989575 -0.000000 18.679939
RightHand -14.460902 -0.000000 10.300445
RightHandThumb1 -24.326973 -0.000000 -32.862282
LeftUpLeg -9.461980 3.775876 0.780232
LeftLeg 20.884667 -0.000000 -0.000000
LeftFoot -28.470387 23.295134 -18.191232
LeftToeBase 10.283439 -0.000000 -0.000000
RightUpLeg -37.662203 5.967749 -8.982397
RightLeg 93.444192 -0.000000 -0.000000
RightFoot -23.740656 -12.433785 26.318710
RightToeBase 6.307914 -0.000000 -0.000000
2134
root -2.029903 31.981696 -5.659074 2.940195 0.643906 -10.300449
Spine 1.126710 -11.626126 3.589668
Head 22.884437 -18.692256 7.401608
LeftShoulder -14.960201 16.278294 14.939894
LeftArm 7.110367 -35.726272 -77.003015
LeftForeArm 2.163278 -0.000000 99.398300
LeftHand -14.110839 -0.000000 30.614462
LeftHandThumb1 -26.253704 0.000000 33.147579
RightShoulder -14.418253 -5.037048 -7.566801
RightArm 4.359663 -27.953157 82.187367
RightForeArm -21.058630 0.000000 18.756357
RightHand -14.473141 -0.000000 10.249378
RightHandThumb1 -24.326973 -0.000000 -32.862282
LeftUpLeg -9.374513 3.852536 0.684683
LeftLeg 20.875843 -0.000000 -0.000000
LeftFoot -28.577233 23.478130 -18.258240
LeftToeBase 10.269261 -0.000000 -0.000000
RightUpLeg -37.721198 5.471959 -8.780232
RightLeg 93.158651 -0.000000 -0.000000
RightFoot -23.707177 -12.271069 26.239481
RightToeBase 6.545977 -0.000000 -0.000000
2135
root -2.021515 31.972493 -5.656695 2.898578 0.323494 -10.221293
Spine 1.165385 -11.453121 3.466868
Head 22.846706 -18.597457 7.464590
LeftShoulder -14.995252 16.321858 14.916566
LeftArm 7.024130 -35.855994 -76.979809
LeftForeArm 2.117634 -0.000000 99.498367
LeftHand -14.084413 -0.000000 30.557508
LeftHandThumb1 -26.253704 0.000000 33.147579
RightShoulder -14.380977 -5.001432 -7.568819
RightArm 4.348002 -28.137466 82.219864
RightForeArm -21.239781 -0.000000 18.810584
RightHand -14.477901 0.000000 10.044141
RightHandThumb1 -24.326973 -0.000000 -32.862282
LeftUpLeg -9.278775 3.977780 0.569574
LeftLeg 20.850214 -0.000000 -0.000000
LeftFoot -28.662718 23.678182 -18.309123
LeftToeBase 10.222899 -0.000000 -0.000000
RightUpLeg -37.799017 4.919119 -8.578210
RightLeg 92.901507 -0.000000 -0.000000
RightFoot -23.708748 -12.166992 26.122460
RightToeBase 6.324280 -0.000000 -0.000000
2136
root -2.014346 31.964284 -5.653564 2.865500 0.020647 -10.165302
Spine 1.189586 -11.263151 3.371222
Head 22.804302 -18.553437 7.532772
LeftShoulder -15.013020 16.324272 14.906741
LeftArm 6.914165 -35.920425 -76.939916
LeftForeArm 2.208183 -0.000000 99.600264
LeftHand -14.145701 -0.000000 30.619069
LeftHandThumb1 -26.253704 0.000000 33.147579
RightShoulder -14.398436 -4.989407 -7.549353
RightArm 4.349552 -28.276241 82.217808
RightForeArm -21.233953 -0.000000 18.910691
RightHand -14.522680 -0.000000 10.052323
RightHandThumb1 -24.326973 -0.000000 -32.862282
LeftUpLeg -9.200451 4.070646 0.486831
LeftLeg 20.847138 -0.000000 -0.000000
LeftFoot -28.723570 23.873727 -18.311899
LeftToeBase 10.102090 -0.000000 -0.000000
RightUpLeg -37.880052 4.290630 -8.309262
RightLeg 92.648051 -0.000000 -0.000000
RightFoot -23.833394 -12.154069 26.169002
RightToeBase 6.065054 -0.000000 -0.000000
2137
root -2.007250 31.956731 -5.650756 2.831315 -0.279641 -10.114950
Spine 1.211241 -11.112252 3.287414
Head 22.771205 -18.472488 7.580892
LeftShoulder -15.055106 16.335800 14.883250
LeftArm 6.801525 -36.065912 -76.929290
LeftForeArm 2.028618 0.000000 99.708963
LeftHand -14.015352 -0.000000 30.373971
LeftHandThumb1 -26.253704 0.000000 33.147579
RightShoulder -14.349962 -4.964844 -7.538490
RightArm 4.320940 -28.351784 82.235046
RightForeArm -21.227882 -0.000000 19.001526
RightHand -14.501937 -0.000000 10.084648
RightHandThumb1 -24.326973 -0.000000 -32.862282
LeftUpLeg -9.116405 4.154559 0.403735
LeftLeg 20.831630 -0.000000 -0.000000
LeftFoot -28.812987 24.079447 -18.377457
LeftToeBase 10.075841 -0.000000 -0.000000
RightUpLeg -37.969189 3.573393 -7.995874
RightLeg 92.424471 -0.000000 -0.000000
RightFoot -23.974455 -12.427680 26.223313
RightToeBase 6.277617 -0.000000 -0.000000
2138
root -1.998423 31.948825 -5.645652 2.786138 -0.572697 -10.033402
Spine 1.238959 -10.954111 3.170662
Head 22.746640 -18.406229 7.605608
LeftShoulder -15.097562 16.346523 14.862960
LeftArm 6.727572 -36.130722 -76.929856
LeftForeArm 2.118127 0.000000 99.800111
LeftHand -14.072077 -0.000000 30.416678
LeftHandThumb1 -26.253704 0.000000 33.147579
RightShoulder -14.296132 -4.927407 -7.523522
RightArm 4.223929 -28.346441 82.280651
RightForeArm -21.248278 -0.000000 19.133970
RightHand -14.516062 -0.000000 10.161333
RightHandThumb1 -24.326973 -0.000000 -32.862282
LeftUpLeg -9.011670 4.261582 0.289015
LeftLeg 20.786726 -0.000000 -0.000000
LeftFoot -28.838539 24.379676 -18.233421
LeftToeBase 10.158594 -0.000000 -0.000000
RightUpLeg -38.059507 2.744612 -7.674186
RightLeg 92.231048 -0.000000 -0.000000
RightFoot -24.148586 -12.827052 26.236690
RightToeBase 6.003973 -0.000000 -0.000000
2139
root -1.989409 31.940934 -5.642963 2.775363 -0.840284 -9.954870
Spine 1.232492 -10.806581 3.061964
Head 22.696346 -18.360790 7.646510
LeftShoulder -15.158311 16.382475 14.836667
LeftArm 6.729043 -36.205324 -76.992176
LeftForeArm 2.127173 0.000000 99.892458
LeftHand -14.051379 -0.000000 30.318674
LeftHandThumb1 -26.253704 0.000000 33.147579
RightShoulder -14.276003 -4.937103 -7.491061
RightArm 4.173495 -28.316238 82.308920
RightForeArm -21.334292 -0.000000 19.273742
RightHand -14.521149 -0.000000 10.160015
RightHandThumb1 -24.326973 -0.000000 -32.862282
LeftUpLeg -8.938884 4.335654 0.173671
LeftLeg 20.726063 -0.000000 -0.000000
LeftFoot -28.890749 24.584060 -18.258634
LeftToeBase 10.057290 -0.000000 -0.000000
RightUpLeg -38.195305 1.793720 -7.335097
RightLeg 92.061588 -0.000000 -0.000000
RightFoot -24.365754 -13.113119 26.452801
RightToeBase 6.063561 -0.000000 -0.000000
2140
root -1.980057 31.934142 -5.640869 2.765779 -1.066132 -9.882737
Spine 1.226352 -10.692966 2.968391
Head 22.636724 -18.322975 7.681721
LeftShoulder -15.201117 16.390104 14.812608
LeftArm 6.696772 -36.253342 -77.030488
LeftForeArm 2.155415 -0.000000 100.016305
LeftHand -14.189976 -0.000000 30.385147
LeftHandThumb1 -26.253704 0.000000 33.147579
RightShoulder -14.258953 -4.979376 -7.459161
RightArm 4.169057 -28.385911 82.329013
RightForeArm -21.581767 -0.000000 19.360530
RightHand -14.590999 -0.000000 9.917461
RightHandThumb1 -24.326973 -0.000000 -32.862282
LeftUpLeg -8.874638 4.417086 0.066253
LeftLeg 20.666535 -0.000000 -0.000000
LeftFoot -28.933988 24.739171 -18.274044
LeftToeBase 10.018225 -0.000000 -0.000000
RightUpLeg -38.324307 0.741081 -6.961059
RightLeg 91.854455 -0.000000 -0.000000
RightFoot -24.471061 -13.630466 26.325135
RightToeBase 5.646209 -0.000000 -0.000000
2141
root -1.973197 31.928444 -5.638627 2.757148 -1.261768 -9.828559
Spine 1.226705 -10.613509 2.890243
Head 22.550167 -18.287664 7.720592
LeftShoulder -15.262739 16.398589 14.794967
LeftArm 6.696708 -36.328048 -77.138747
LeftForeArm 2.205991 -0.000000 100.110682
LeftHand -14.119845 -0.000000 30.257179
LeftHandThumb1 -26.253704 0.000000 33.147579
RightShoulder -14.234395 -4.816089 -7.451175
RightArm 3.901231 -28.358538 82.439003
RightForeArm -21.756007 -0.000000 19.515161
RightHand -14.595684 -0.000000 9.981184
RightHandThumb1 -24.326973 -0.000000 -32.862282
LeftUpLeg -8.806364 4.509502 -0.016234
LeftLeg 20.586581 -0.000000 -0.000000
LeftFoot -28.938060 24.888049 -18.226222
LeftToeBase 10.011466 -0.000000 -0.000000
RightUpLeg -38.464088 -0.422582 -6.514400
RightLeg 91.656208 -0.000000 -0.000000
RightFoot -24.558944 -14.091886 26.293897
RightToeBase 5.491699 -0.000000 -0.000000
